<svg
	version="1"
	xmlns="http://www.w3.org/2000/svg"
	width="682.667"
	height="682.667"
	viewBox="0 0 512 512"
><path
		d="M396 391.5V458h21l.2-21.4.3-21.3 17.3 21.3 17.3 21.4H478.4l-3.1-3.2c-6.5-7-37.3-42.8-37.3-43.4 0-.3 7.8-9.7 17.3-20.8 9.5-11 17.6-20.7 18.1-21.4.5-.9-1.9-1.2-11.2-1.2h-12l-16.6 20.6-16.6 20.6V325h-21v66.5zM117.4 333.7c.7 2.2 31.9 114 33.6 120.1l1.1 4.3 12.2-.3 12.2-.3 12.7-46.5c7-25.6 12.7-47.6 12.8-49 .1-1.4 1.8 4 3.9 12 2.1 8 8 30.1 13.2 49.3l9.4 34.7 12-.2 11.9-.3 17.1-62.5 17.1-62.5-10.4-.3c-5.8-.1-10.6-.1-10.8.1-.2.2-5.5 21.7-11.8 47.8-14.6 60.7-13.4 55.9-13.5 53-.1-1.4-5.7-24.4-12.6-51.2-6.9-26.8-12.5-49-12.5-49.3 0-.3-4.9-.6-10.9-.6-9.6 0-11 .2-11.5 1.7-1.2 4.2-25.6 92.3-27 97.3-1.3 5.1-1.4 5.3-1.5 1.9-.1-2-5.3-24.5-11.6-50s-11.7-47.4-12-48.7c-.5-2.1-.9-2.2-12.1-2.2-10.5 0-11.5.2-11 1.7zM324 366.7c-9.9 1.6-18.9 6.3-25.3 13.2-8.4 9-11.7 18.4-11.7 33.7 0 16 4.3 27 13.7 35.4 13.9 12.3 36.4 14.6 55 5.5 14.6-7.2 23.2-22.5 23.3-41.6.1-29.5-17.4-47.3-45.9-46.8-3.6.1-7.7.4-9.1.6zm21.4 18.6c13.1 7.2 17.1 33.8 7.3 48.5-4.6 6.7-10.3 9.6-19.2 9.7-9.3 0-15.6-3.1-20.2-9.9-4.2-6.2-5.4-10.9-5.4-21.1.1-19.7 10.8-31.4 27.5-30 3.4.3 7.6 1.4 10 2.8z"
	/></svg>
